<svg width="27" height="25" viewBox="0 0 27 25" fill="none" xmlns="http://www.w3.org/2000/svg">
<path d="M8.31036 25C7.93105 25 7.53449 24.9138 7.17242 24.7242C6.36208 24.2931 5.86206 23.4655 5.86206 22.5345V21.2241C4.34482 20.9828 3.00001 20.3448 2.00001 19.3448C0.689662 18.0344 0 16.2413 0 14.1724V7.15521C0 3.25866 2.55171 0.396585 6.34481 0.0345164C6.62068 0.0172751 6.8793 0 7.15516 0H18.8621C23.069 0 26.0172 2.94832 26.0172 7.15521V14.1724C26.0172 14.931 25.931 15.6379 25.7414 16.2759C24.9655 19.3793 22.3276 21.3276 18.8621 21.3276H14.569L9.68965 24.569C9.27585 24.8621 8.79312 25 8.31036 25ZM7.15516 2.58621C6.94827 2.58621 6.75862 2.60348 6.56896 2.62072C4.0862 2.84486 2.58621 4.55177 2.58621 7.15521V14.1724C2.58621 15.5517 3.01724 16.7069 3.82759 17.5172C4.62069 18.3103 5.77585 18.7414 7.15516 18.7414C7.86206 18.7414 8.44827 19.3276 8.44827 20.0345V22.2931L13.4483 18.9655C13.6552 18.8276 13.9138 18.7414 14.1724 18.7414H18.8621C21.1379 18.7414 22.7414 17.6034 23.2414 15.6034C23.3621 15.1724 23.431 14.6896 23.431 14.1724V7.15521C23.431 4.34487 21.6724 2.58621 18.8621 2.58621H7.15516Z" fill="white"/>
<path d="M13.0876 12.1141C12.3338 12.1141 11.7416 11.5039 11.7416 10.7681C11.7416 10.0323 12.3518 9.42207 13.0876 9.42207C13.8234 9.42207 14.4336 10.0323 14.4336 10.7681C14.4336 11.5039 13.8234 12.1141 13.0876 12.1141Z" fill="white"/>
<path d="M18.1308 12.1141C17.377 12.1141 16.7847 11.5039 16.7847 10.7681C16.7847 10.0323 17.3949 9.42207 18.1308 9.42207C18.8666 9.42207 19.4768 10.0323 19.4768 10.7681C19.4768 11.5039 18.8666 12.1141 18.1308 12.1141Z" fill="white"/>
<path d="M8.02692 12.1141C7.27315 12.1141 6.68091 11.5039 6.68091 10.7681C6.68091 10.0323 7.2911 9.42207 8.02692 9.42207C8.76274 9.42207 9.37293 10.0323 9.37293 10.7681C9.37293 11.5039 8.78068 12.1141 8.02692 12.1141Z" fill="white"/>
</svg>
