<svg width="23" height="25" viewBox="0 0 23 25" fill="none" xmlns="http://www.w3.org/2000/svg">
<path d="M11.8979 13.0416L12.5578 14.3723C12.6478 14.5576 12.8878 14.7353 13.0902 14.7693L14.2864 14.9697C15.0513 15.0982 15.2312 15.6577 14.6801 16.2097L13.7502 17.1473C13.5927 17.3061 13.5064 17.6123 13.5552 17.8316L13.8214 18.9922C14.0314 19.9109 13.5477 20.2662 12.7415 19.7861L11.6204 19.1169C11.4179 18.996 11.0842 18.996 10.878 19.1169L9.75685 19.7861C8.95444 20.2662 8.46699 19.9071 8.67697 18.9922L8.94319 17.8316C8.99194 17.6123 8.9057 17.3061 8.74821 17.1473L7.81832 16.2097C7.27088 15.6577 7.44711 15.0982 8.21202 14.9697L9.40814 14.7693C9.60687 14.7353 9.84684 14.5576 9.93683 14.3723L10.5968 13.0416C10.9567 12.3195 11.5417 12.3195 11.8979 13.0416Z" fill="#666666"/>
<path fill-rule="evenodd" clip-rule="evenodd" d="M5.76923 0.872093C5.76923 0.395349 6.16154 0 6.63462 0C7.10769 0 7.5 0.395349 7.5 0.872093V1.74419H15V0.872093C15 0.395349 15.3923 0 15.8654 0C16.3385 0 16.7308 0.395349 16.7308 0.872093V1.7805C20.4071 2.09811 22.5 4.48581 22.5 8.43023V18.314C22.5 22.5581 20.0769 25 15.8654 25H6.63462C2.42308 25 0 22.5581 0 18.314V8.43023C0 4.48581 2.09288 2.09811 5.76923 1.7805V0.872093ZM5.76923 4.36047C5.76923 4.83721 6.16154 5.23256 6.63462 5.23256C7.10769 5.23256 7.5 4.83721 7.5 4.36047V3.48837H15V4.36047C15 4.83721 15.3923 5.23256 15.8654 5.23256C16.3385 5.23256 16.7308 4.83721 16.7308 4.36047V3.52924C19.3898 3.79368 20.7138 5.34349 20.7675 8.24415H1.73248C1.78624 5.34349 3.11018 3.79368 5.76923 3.52924V4.36047ZM6.63462 23.2558C3.33462 23.2558 1.73077 21.6395 1.73077 18.314V9.98833H20.7692V18.314C20.7692 21.6395 19.1654 23.2558 15.8654 23.2558H6.63462Z" fill="#666666"/>
</svg>
