<svg width="20" height="20" viewBox="0 0 20 20" fill="none" xmlns="http://www.w3.org/2000/svg">
<path d="M7.64152 9.73709C7.61335 9.73709 7.59457 9.73709 7.56641 9.73709C7.51946 9.7277 7.45373 9.7277 7.39739 9.73709C4.67439 9.65258 2.61805 7.51174 2.61805 4.87324C2.61805 2.18779 4.80584 0 7.49129 0C10.1767 0 12.3645 2.18779 12.3645 4.87324C12.3551 7.51174 10.2894 9.65258 7.66969 9.73709C7.6603 9.73709 7.65091 9.73709 7.64152 9.73709ZM7.49129 1.40845C5.58519 1.40845 4.0265 2.96714 4.0265 4.87324C4.0265 6.75117 5.49129 8.26291 7.35983 8.32864C7.41617 8.31925 7.53824 8.31925 7.6603 8.32864C9.50068 8.24413 10.9467 6.73239 10.9561 4.87324C10.9561 2.96714 9.39739 1.40845 7.49129 1.40845Z" fill="#654EA3"/>
<path d="M14.5711 9.85916C14.543 9.85916 14.5148 9.85915 14.4866 9.84977C14.1017 9.88732 13.7073 9.61502 13.6697 9.23005C13.6322 8.84507 13.8669 8.49765 14.2519 8.4507C14.3646 8.44131 14.4866 8.44131 14.5899 8.44131C15.9608 8.3662 17.0312 7.23944 17.0312 5.85916C17.0312 4.43193 15.8763 3.277 14.4491 3.277C14.0641 3.28638 13.7449 2.96714 13.7449 2.58216C13.7449 2.19718 14.0641 1.87793 14.4491 1.87793C16.6463 1.87793 18.4397 3.67136 18.4397 5.86855C18.4397 8.02817 16.7496 9.77465 14.5993 9.85916C14.5899 9.85916 14.5805 9.85916 14.5711 9.85916Z" fill="#654EA3"/>
<path d="M7.65095 20C5.81057 20 3.96081 19.5305 2.56175 18.5915C1.25658 17.7277 0.542969 16.5446 0.542969 15.2582C0.542969 13.9718 1.25658 12.7793 2.56175 11.9061C5.37865 10.0376 9.94203 10.0376 12.7402 11.9061C14.0359 12.77 14.7589 13.9531 14.7589 15.2394C14.7589 16.5258 14.0453 17.7183 12.7402 18.5915C11.3317 19.5305 9.49133 20 7.65095 20ZM3.34109 13.0892C2.43968 13.6901 1.95142 14.4601 1.95142 15.2676C1.95142 16.0657 2.44907 16.8357 3.34109 17.4272C5.67912 18.9953 9.62278 18.9953 11.9608 17.4272C12.8622 16.8263 13.3505 16.0563 13.3505 15.2488C13.3505 14.4507 12.8528 13.6808 11.9608 13.0892C9.62278 11.5305 5.67912 11.5305 3.34109 13.0892Z" fill="#654EA3"/>
<path d="M16.2612 18.3099C15.9326 18.3099 15.6415 18.0845 15.5758 17.7465C15.5007 17.3615 15.7448 16.9953 16.1204 16.9108C16.7119 16.7888 17.2565 16.554 17.6791 16.2254C18.2143 15.8216 18.5054 15.3146 18.5054 14.7794C18.5054 14.2441 18.2143 13.7371 17.6885 13.3427C17.2753 13.0235 16.7589 12.7981 16.1485 12.6573C15.773 12.5728 15.5288 12.1972 15.6133 11.8122C15.6978 11.4366 16.0734 11.1925 16.4584 11.277C17.2659 11.4554 17.9701 11.7747 18.5429 12.216C19.4162 12.8733 19.9138 13.8028 19.9138 14.7794C19.9138 15.7559 19.4068 16.6855 18.5335 17.3521C17.9514 17.8028 17.219 18.1315 16.4115 18.2911C16.3551 18.3099 16.3082 18.3099 16.2612 18.3099Z" fill="#654EA3"/>
<path d="M3.34109 13.0892C2.43968 13.6901 1.95142 14.4601 1.95142 15.2676C1.95142 16.0657 2.44907 16.8357 3.34109 17.4272C5.67912 18.9953 9.62278 18.9953 11.9608 17.4272C12.8622 16.8263 13.3505 16.0563 13.3505 15.2488C13.3505 14.4507 12.8528 13.6808 11.9608 13.0892C9.62278 11.5305 5.67912 11.5305 3.34109 13.0892Z" fill="#654EA3" fill-opacity="0.25"/>
<path d="M7.49129 1.40845C5.58519 1.40845 4.0265 2.96714 4.0265 4.87324C4.0265 6.75117 5.49129 8.26291 7.35983 8.32864C7.41617 8.31925 7.53824 8.31925 7.6603 8.32864C9.50068 8.24413 10.9467 6.73239 10.9561 4.87324C10.9561 2.96714 9.39739 1.40845 7.49129 1.40845Z" fill="#654EA3" fill-opacity="0.25"/>
</svg>
