<svg width="21" height="20" viewBox="0 0 21 20" fill="none" xmlns="http://www.w3.org/2000/svg">
<path d="M15.4722 20H4.70013C2.1513 20 0.0861816 17.9233 0.0861816 15.3717V8.47114C0.0861816 7.20464 0.867577 5.61221 1.87223 4.82996L6.88618 0.918711C8.39316 -0.254662 10.8025 -0.310538 12.3653 0.788336L18.1141 4.82064C19.2211 5.59358 20.0862 7.2512 20.0862 8.60151V15.381C20.0862 17.9233 18.0211 20 15.4722 20ZM7.74199 2.01758L2.72804 5.92883C2.06758 6.45033 1.48153 7.63302 1.48153 8.47114V15.3717C1.48153 17.1504 2.92339 18.6031 4.70013 18.6031H15.4722C17.249 18.6031 18.6908 17.1597 18.6908 15.381V8.60151C18.6908 7.70752 18.049 6.46895 17.3141 5.96608L11.5653 1.93377C10.5048 1.18877 8.75595 1.22602 7.74199 2.01758Z" fill="#654EA3"/>
<path d="M10.0862 16.8C9.43018 16.8 8.88618 16.4373 8.88618 16V12.8C8.88618 12.3627 9.43018 12 10.0862 12C10.7422 12 11.2862 12.3627 11.2862 12.8V16C11.2862 16.4373 10.7422 16.8 10.0862 16.8Z" fill="#654EA3"/>
<path fill-rule="evenodd" clip-rule="evenodd" d="M7.74199 2.01758L2.72804 5.92883C2.06758 6.45033 1.48153 7.63302 1.48153 8.47114V15.3717C1.48153 17.1504 2.92339 18.6031 4.70013 18.6031H15.4722C17.249 18.6031 18.6908 17.1597 18.6908 15.381V8.60151C18.6908 7.70752 18.049 6.46895 17.3141 5.96608L11.5653 1.93377C10.5048 1.18877 8.75595 1.22602 7.74199 2.01758ZM8.88618 16C8.88618 16.4373 9.43018 16.8 10.0862 16.8C10.7422 16.8 11.2862 16.4373 11.2862 16V12.8C11.2862 12.3627 10.7422 12 10.0862 12C9.43018 12 8.88618 12.3627 8.88618 12.8V16Z" fill="#654EA3" fill-opacity="0.25"/>
</svg>
