<svg width="25" height="25" viewBox="0 0 25 25" fill="none" xmlns="http://www.w3.org/2000/svg">
<path d="M12.5 25C12.1395 25 11.7907 24.9482 11.5 24.8316C7.05814 23.1347 0 17.1114 0 8.21243C0 3.67876 3.2907 0 7.33721 0C9.30233 0 11.1395 0.854923 12.5 2.38342C13.8605 0.854923 15.6977 0 17.6628 0C21.7093 0 25 3.69171 25 8.21243C25 17.1244 17.9419 23.1347 13.5 24.8316C13.2093 24.9482 12.8605 25 12.5 25ZM7.33721 1.94301C4.25581 1.94301 1.74419 4.75389 1.74419 8.21243C1.74419 17.0596 9.38372 21.9819 12.0698 23.0052C12.2791 23.0829 12.7326 23.0829 12.9419 23.0052C15.6163 21.9819 23.2674 17.0725 23.2674 8.21243C23.2674 4.75389 20.7558 1.94301 17.6744 1.94301C15.907 1.94301 14.2674 2.86269 13.2093 4.45596C12.8837 4.94819 12.1395 4.94819 11.814 4.45596C10.7326 2.84974 9.10465 1.94301 7.33721 1.94301Z" fill="white"/>
</svg>
