<svg width="24" height="20" viewBox="0 0 24 20" fill="none" xmlns="http://www.w3.org/2000/svg">
<path d="M17.3268 20H6.51602C2.57008 20 0.299805 17.7297 0.299805 13.7838V6.21622C0.299805 2.27027 2.57008 0 6.51602 0H17.3268C21.2728 0 23.543 2.27027 23.543 6.21622V13.7838C23.543 17.7297 21.2728 20 17.3268 20ZM6.51602 1.62162C3.42413 1.62162 1.92143 3.12432 1.92143 6.21622V13.7838C1.92143 16.8757 3.42413 18.3784 6.51602 18.3784H17.3268C20.4187 18.3784 21.9214 16.8757 21.9214 13.7838V6.21622C21.9214 3.12432 20.4187 1.62162 17.3268 1.62162H6.51602Z" fill="#654EA3"/>
<path d="M11.9212 10.9405C11.0131 10.9405 10.0942 10.6594 9.39146 10.0865L6.00767 7.38375C5.66173 7.10267 5.59687 6.59456 5.87795 6.24861C6.15903 5.90267 6.66714 5.83781 7.01309 6.11889L10.3969 8.82159C11.2185 9.48105 12.6131 9.48105 13.4347 8.82159L16.8185 6.11889C17.1644 5.83781 17.6834 5.89186 17.9536 6.24861C18.2347 6.59456 18.1807 7.11348 17.8239 7.38375L14.4401 10.0865C13.7482 10.6594 12.8293 10.9405 11.9212 10.9405Z" fill="#654EA3"/>
<path fill-rule="evenodd" clip-rule="evenodd" d="M6.51602 1.62162C3.42413 1.62162 1.92143 3.12432 1.92143 6.21622V13.7838C1.92143 16.8757 3.42413 18.3784 6.51602 18.3784H17.3268C20.4187 18.3784 21.9214 16.8757 21.9214 13.7838V6.21622C21.9214 3.12432 20.4187 1.62162 17.3268 1.62162H6.51602ZM9.39146 10.0865C10.0942 10.6594 11.0131 10.9405 11.9212 10.9405C12.8293 10.9405 13.7482 10.6594 14.4401 10.0865L17.8239 7.38375C18.1807 7.11348 18.2347 6.59456 17.9536 6.24861C17.6834 5.89186 17.1644 5.83781 16.8185 6.11889L13.4347 8.82159C12.6131 9.48105 11.2185 9.48105 10.3969 8.82159L7.01309 6.11889C6.66714 5.83781 6.15903 5.90267 5.87795 6.24861C5.59687 6.59456 5.66173 7.10267 6.00767 7.38375L9.39146 10.0865Z" fill="#654EA3" fill-opacity="0.25"/>
</svg>
