<svg width="25" height="25" viewBox="0 0 25 25" fill="none" xmlns="http://www.w3.org/2000/svg">
<path d="M17.1512 25H2.03488C0.918605 25 0 24.0814 0 22.9651V7.84884C0 2.7093 2.7093 0 7.84884 0H17.1512C22.2907 0 25 2.7093 25 7.84884V17.1512C25 22.2907 22.2907 25 17.1512 25ZM7.84884 1.74419C3.68605 1.74419 1.74419 3.68605 1.74419 7.84884V22.9651C1.74419 23.1279 1.87209 23.2558 2.03488 23.2558H17.1512C21.314 23.2558 23.2558 21.314 23.2558 17.1512V7.84884C23.2558 3.68605 21.314 1.74419 17.1512 1.74419H7.84884Z" fill="#666666"/>
<path d="M16.5698 13.3721H8.43023C7.95349 13.3721 7.55814 12.9767 7.55814 12.5C7.55814 12.0233 7.95349 11.6279 8.43023 11.6279H16.5698C17.0465 11.6279 17.4419 12.0233 17.4419 12.5C17.4419 12.9767 17.0465 13.3721 16.5698 13.3721Z" fill="#666666"/>
<path d="M12.5 17.4419C12.0233 17.4419 11.6279 17.0465 11.6279 16.5698V8.43023C11.6279 7.95349 12.0233 7.55814 12.5 7.55814C12.9767 7.55814 13.3721 7.95349 13.3721 8.43023V16.5698C13.3721 17.0465 12.9767 17.4419 12.5 17.4419Z" fill="#666666"/>
</svg>
