<svg width="17" height="20" viewBox="0 0 17 20" fill="none" xmlns="http://www.w3.org/2000/svg">
<path fill-rule="evenodd" clip-rule="evenodd" d="M1.86455 16.8655C1.08785 16.5973 0.496081 16.0518 0.237182 15.3398C-0.0309643 14.6278 0.0614998 13.8419 0.486835 13.1391L1.55017 11.3731C1.77209 11.0032 1.97551 10.2635 1.97551 9.82893V7.15672C1.97551 4.49685 3.65085 2.2185 6.00102 1.32216C6.43756 0.514344 7.27964 0 8.22608 0C9.17709 0 10.0227 0.511796 10.4574 1.33168C12.7946 2.23454 14.4582 4.50621 14.4582 7.15672V9.82893C14.4582 10.2543 14.6616 11.0032 14.8835 11.3823L15.9376 13.1391C16.3352 13.8049 16.4092 14.6093 16.141 15.3398C15.8729 16.0703 15.2903 16.625 14.5599 16.8655C13.5669 17.1994 12.5453 17.4519 11.509 17.6229C11.0517 19.0033 9.74992 20 8.21675 20C7.30135 20 6.4137 19.6301 5.76645 18.9829C5.38298 18.5994 5.09687 18.1316 4.92737 17.6235C3.88856 17.4526 2.8633 17.1999 1.86455 16.8655ZM3.36247 7.15672C3.36247 4.47526 5.54462 2.30235 8.21684 2.30235C10.8983 2.30235 13.0712 4.47526 13.0712 7.15672V9.81968C13.0712 10.4947 13.3394 11.484 13.6907 12.0851L14.7541 13.8511C14.939 14.1563 14.9667 14.5169 14.8465 14.8497C14.7263 15.1826 14.4674 15.4323 14.1345 15.5432C10.2695 16.8377 6.17338 16.8377 2.30838 15.5432C1.92928 15.4138 1.65188 15.1734 1.54093 14.859C1.42072 14.5538 1.4762 14.1932 1.67962 13.8511L2.74296 12.0851C3.08508 11.5025 3.36247 10.5039 3.36247 9.82893V7.15672ZM8.21675 18.613C7.67121 18.613 7.13492 18.3911 6.74657 18.0028C6.69077 17.947 6.6384 17.8881 6.58963 17.8266C7.13085 17.8701 7.67384 17.8918 8.21684 17.8918C8.75998 17.8918 9.30312 17.8701 9.84434 17.8266C9.46275 18.3054 8.87477 18.613 8.21675 18.613Z" fill="#654EA3"/>
<path d="M8.21684 2.30235C5.54462 2.30235 3.36247 4.47526 3.36247 7.15672V9.82893C3.36247 10.5039 3.08508 11.5025 2.74296 12.0851L1.67962 13.8511C1.4762 14.1932 1.42072 14.5538 1.54093 14.859C1.65188 15.1734 1.92928 15.4138 2.30838 15.5432C6.17338 16.8377 10.2695 16.8377 14.1345 15.5432C14.4674 15.4323 14.7263 15.1826 14.8465 14.8497C14.9667 14.5169 14.939 14.1563 14.7541 13.8511L13.6907 12.0851C13.3394 11.484 13.0712 10.4947 13.0712 9.81968V7.15672C13.0712 4.47526 10.8983 2.30235 8.21684 2.30235Z" fill="#654EA3" fill-opacity="0.25"/>
<path d="M6.74657 18.0028C7.13492 18.3911 7.67121 18.613 8.21675 18.613C8.87477 18.613 9.46275 18.3054 9.84434 17.8266C9.30312 17.8701 8.75998 17.8918 8.21684 17.8918C7.67384 17.8918 7.13085 17.8701 6.58963 17.8266C6.6384 17.8881 6.69077 17.947 6.74657 18.0028Z" fill="#654EA3" fill-opacity="0.25"/>
</svg>
