<svg width="22" height="25" viewBox="0 0 22 25" fill="none" xmlns="http://www.w3.org/2000/svg">
<path d="M19.0744 24.9925C18.4499 24.9925 17.7971 24.808 17.13 24.4532L11.5525 21.3451C11.2828 21.2032 10.7009 21.2032 10.4313 21.3451L4.86793 24.4532C3.66159 25.1202 2.42685 25.177 1.49017 24.6235C0.539288 24.07 0 22.963 0 21.6005V5.47818C0 2.45524 2.45524 0 5.47818 0H16.5198C19.5427 0 21.998 2.45524 21.998 5.47818V21.6005C21.998 22.963 21.4587 24.07 20.5078 24.6235C20.082 24.8648 19.5995 24.9925 19.0744 24.9925ZM10.999 19.1027C11.5667 19.1027 12.1202 19.2304 12.5885 19.4859L18.166 22.594C18.677 22.8779 19.1595 22.9488 19.4292 22.7785C19.6988 22.6224 19.8691 22.1683 19.8691 21.5864V5.46397C19.8691 3.61898 18.3648 2.11463 16.5198 2.11463H5.47818C3.63319 2.11463 2.12884 3.61898 2.12884 5.46397V21.5864C2.12884 22.1683 2.29914 22.6224 2.56879 22.7785C2.83844 22.9346 3.321 22.8636 3.83192 22.5798L9.40946 19.4717C9.86361 19.2304 10.4313 19.1027 10.999 19.1027Z" fill="#654EA3"/>
<path d="M10.999 19.1027C11.5667 19.1027 12.1202 19.2304 12.5885 19.4859L18.166 22.594C18.677 22.8779 19.1595 22.9488 19.4292 22.7785C19.6988 22.6224 19.8691 22.1683 19.8691 21.5864V5.46397C19.8691 3.61898 18.3648 2.11463 16.5198 2.11463H5.47818C3.63319 2.11463 2.12884 3.61898 2.12884 5.46397V21.5864C2.12884 22.1683 2.29914 22.6224 2.56879 22.7785C2.83844 22.9346 3.321 22.8636 3.83192 22.5798L9.40946 19.4717C9.86361 19.2304 10.4313 19.1027 10.999 19.1027Z" fill="#654EA3" fill-opacity="0.25"/>
</svg>
