<svg width="25" height="25" viewBox="0 0 25 25" fill="none" xmlns="http://www.w3.org/2000/svg">
<path d="M15.3748 25C13.8442 25 11.6781 23.9234 9.96592 18.774L9.03201 15.9722L6.23029 15.0383C1.0938 13.3262 0.0172119 11.16 0.0172119 9.62945C0.0172119 8.11185 1.0938 5.93273 6.23029 4.2076L17.2426 0.536828C19.9924 -0.384108 22.2883 -0.111719 23.7021 1.28914C25.116 2.69 25.3883 4.99883 24.4674 7.74866L20.7966 18.761C19.0715 23.9234 16.9054 25 15.3748 25ZM6.83992 6.06244C3.234 7.26874 1.94988 8.69554 1.94988 9.62945C1.94988 10.5634 3.234 11.9902 6.83992 13.1835L10.1086 14.273C10.394 14.3638 10.6274 14.5973 10.7182 14.8827L11.8078 18.1514C13.0011 21.7573 14.4409 23.0414 15.3748 23.0414C16.3087 23.0414 17.7355 21.7573 18.9418 18.1514L22.6126 7.13903C23.2741 5.14151 23.1574 3.50717 22.3142 2.66406C21.4711 1.82095 19.8368 1.71718 17.8522 2.3787L6.83992 6.06244Z" fill="white"/>
<path d="M12.3654 13.2936C12.119 13.2936 11.8725 13.2029 11.678 13.0083C11.3018 12.6321 11.3018 12.0095 11.678 11.6334L16.3216 6.9768C16.6977 6.60065 17.3203 6.60065 17.6965 6.9768C18.0726 7.35296 18.0726 7.97556 17.6965 8.35172L13.0529 13.0083C12.8713 13.2029 12.6119 13.2936 12.3654 13.2936Z" fill="white"/>
</svg>
