<svg width="27" height="25" viewBox="0 0 27 25" fill="none" xmlns="http://www.w3.org/2000/svg">
<path d="M17.1231 24.995C16.8655 24.995 16.6079 24.9582 16.3503 24.8969C15.5898 24.6884 14.952 24.21 14.5472 23.5354L14.4001 23.29C13.6764 22.0389 12.6828 22.0389 11.9592 23.29L11.8242 23.5231C11.4195 24.21 10.7816 24.7006 10.0212 24.8969C9.24842 25.1054 8.45114 24.995 7.77652 24.5902L5.6668 23.3759C4.91859 22.9466 4.37889 22.2475 4.14584 21.4011C3.92506 20.5548 4.03545 19.6839 4.46475 18.9357C4.82046 18.3101 4.91859 17.7459 4.71007 17.3902C4.50155 17.0345 3.97412 16.826 3.25044 16.826C1.45963 16.826 0 15.3663 0 13.5755V11.4167C0 9.62594 1.45963 8.16631 3.25044 8.16631C3.97412 8.16631 4.50155 7.95779 4.71007 7.60209C4.91859 7.24638 4.83273 6.68215 4.46475 6.05659C4.03545 5.30838 3.92506 4.42524 4.14584 3.59117C4.36663 2.74483 4.90632 2.04567 5.6668 1.61637L7.78879 0.402057C9.17482 -0.419752 11.0024 0.0586138 11.8365 1.46918L11.9837 1.7145C12.7074 2.96561 13.7009 2.96561 14.4246 1.7145L14.5595 1.48145C15.3936 0.0586138 17.2212 -0.419752 18.6195 0.414322L20.7292 1.62864C21.4774 2.05794 22.0171 2.75709 22.2502 3.60343C22.471 4.44977 22.3606 5.32065 21.9313 6.06886C21.5756 6.69442 21.4774 7.25864 21.6859 7.61435C21.8945 7.97006 22.4219 8.17858 23.1456 8.17858C24.9364 8.17858 26.396 9.63821 26.396 11.429V13.5878C26.396 15.3786 24.9364 16.8382 23.1456 16.8382C22.4219 16.8382 21.8945 17.0468 21.6859 17.4025C21.4774 17.7582 21.5633 18.3224 21.9313 18.948C22.3606 19.6962 22.4832 20.5793 22.2502 21.4134C22.0294 22.2597 21.4897 22.9589 20.7292 23.3882L18.6072 24.6025C18.1411 24.8601 17.6382 24.995 17.1231 24.995ZM13.1857 20.4566C14.2774 20.4566 15.2955 21.1435 15.9946 22.3578L16.1295 22.5909C16.2767 22.8485 16.522 23.0325 16.8164 23.1061C17.1108 23.1797 17.4052 23.1429 17.6505 22.9957L19.7725 21.7691C20.0914 21.5851 20.3367 21.2785 20.4348 20.9105C20.533 20.5425 20.4839 20.1623 20.2999 19.8434C19.6008 18.6413 19.5149 17.4025 20.0546 16.458C20.5943 15.5135 21.7105 14.9738 23.1088 14.9738C23.8938 14.9738 24.5193 14.3483 24.5193 13.5633V11.4045C24.5193 10.6317 23.8938 9.99392 23.1088 9.99392C21.7105 9.99392 20.5943 9.45422 20.0546 8.50975C19.5149 7.56529 19.6008 6.32644 20.2999 5.12439C20.4839 4.80548 20.533 4.42524 20.4348 4.05727C20.3367 3.68929 20.1037 3.39491 19.7847 3.19866L17.6628 1.98435C17.1353 1.66543 16.4362 1.84942 16.1173 2.38912L15.9823 2.62217C15.2832 3.83648 14.2651 4.52337 13.1735 4.52337C12.0818 4.52337 11.0638 3.83648 10.3646 2.62217L10.2297 2.37685C9.92304 1.86169 9.23615 1.6777 8.70872 1.98435L6.58674 3.21093C6.26783 3.39491 6.02251 3.70156 5.92438 4.06953C5.82626 4.43751 5.87532 4.81775 6.05931 5.13666C6.75846 6.33871 6.84432 7.57755 6.30462 8.52202C5.76493 9.46649 4.64874 10.0062 3.25044 10.0062C2.46543 10.0062 1.83987 10.6317 1.83987 11.4167V13.5755C1.83987 14.3483 2.46543 14.9861 3.25044 14.9861C4.64874 14.9861 5.76493 15.5258 6.30462 16.4703C6.84432 17.4147 6.75846 18.6536 6.05931 19.8556C5.87532 20.1745 5.82626 20.5548 5.92438 20.9228C6.02251 21.2907 6.25556 21.5851 6.57447 21.7814L8.69646 22.9957C8.95404 23.1551 9.26068 23.1919 9.5428 23.1183C9.83718 23.0447 10.0825 22.8485 10.2419 22.5909L10.3769 22.3578C11.076 21.1558 12.0941 20.4566 13.1857 20.4566Z" fill="#666666"/>
<path fill-rule="evenodd" clip-rule="evenodd" d="M13.1857 17.0958C10.6467 17.0958 8.58606 15.0351 8.58606 12.4961C8.58606 9.95707 10.6467 7.89641 13.1857 7.89641C15.7248 7.89641 17.7854 9.95707 17.7854 12.4961C17.7854 15.0351 15.7248 17.0958 13.1857 17.0958ZM10.4259 12.4961C10.4259 10.9751 11.6648 9.73628 13.1857 9.73628C14.7067 9.73628 15.9455 10.9751 15.9455 12.4961C15.9455 14.017 14.7067 15.2559 13.1857 15.2559C11.6648 15.2559 10.4259 14.017 10.4259 12.4961Z" fill="#666666"/>
</svg>
